<svg xmlns="http://www.w3.org/2000/svg" xmlns:xlink="http://www.w3.org/1999/xlink" width="500" zoomAndPan="magnify" viewBox="0 0 375 374.999991" height="500" preserveAspectRatio="xMidYMid meet" version="1.0"><defs><g/><clipPath id="id1"><path d="M 39.539062 135.808594 L 114.539062 135.808594 L 114.539062 222.058594 L 39.539062 222.058594 Z M 39.539062 135.808594 " clip-rule="nonzero"/></clipPath></defs><rect x="-37.5" width="450" fill="#ffffff" y="-37.499999" height="449.999989" fill-opacity="1"/><rect x="-37.5" width="450" fill="#ffffff" y="-37.499999" height="449.999989" fill-opacity="1"/><rect x="-37.5" width="450" fill="#ffffff" y="-37.499999" height="449.999989" fill-opacity="1"/><rect x="-37.5" width="450" fill="#ffffff" y="-37.499999" height="449.999989" fill-opacity="1"/><g fill="#0b610b" fill-opacity="1"><g transform="translate(132.583568, 196.715437)"><g><path d="M 8.644531 -13.636719 C 7.925781 -13.636719 7.667969 -13.945312 7.71875 -14.667969 L 8.800781 -29.335938 C 8.902344 -30.621094 9.160156 -31.394531 10.085938 -31.394531 C 10.960938 -31.394531 11.269531 -30.621094 11.375 -29.335938 L 12.453125 -14.667969 C 12.507812 -13.945312 12.25 -13.636719 11.527344 -13.636719 Z M 16.519531 -29.851562 C 16.210938 -34.171875 14.667969 -36.027344 10.34375 -36.027344 L 9.828125 -36.027344 C 5.457031 -36.027344 3.960938 -34.171875 3.652344 -29.851562 L 1.59375 -2.058594 C 1.492188 -0.617188 2.160156 0 3.652344 0 L 4.683594 0 C 6.074219 0 6.640625 -0.617188 6.742188 -2.058594 L 7.207031 -7.976562 C 7.257812 -8.699219 7.566406 -9.007812 8.285156 -9.007812 L 11.886719 -9.007812 C 12.609375 -9.007812 12.917969 -8.699219 12.96875 -7.976562 L 13.433594 -2.058594 C 13.535156 -0.617188 14.050781 0 15.492188 0 L 16.519531 0 C 17.960938 0 18.683594 -0.617188 18.578125 -2.058594 Z M 16.519531 -29.851562 "/></g></g></g><g fill="#0b610b" fill-opacity="1"><g transform="translate(152.754752, 196.715437)"><g><path d="M 5.660156 0 C 7.101562 0 7.71875 -0.617188 7.71875 -2.058594 L 7.71875 -36.539062 C 7.71875 -37.980469 7.101562 -38.597656 5.660156 -38.597656 L 4.632812 -38.597656 C 3.191406 -38.597656 2.574219 -37.980469 2.574219 -36.539062 L 2.574219 -2.058594 C 2.574219 -0.617188 3.191406 0 4.632812 0 Z M 5.660156 0 "/></g></g></g><g fill="#0b610b" fill-opacity="1"><g transform="translate(163.046171, 196.715437)"><g><path d="M 15.441406 0 C 16.878906 0 17.5 -0.617188 17.5 -2.058594 L 17.5 -2.574219 C 17.5 -4.015625 16.878906 -4.632812 15.441406 -4.632812 L 9.777344 -4.632812 C 8.335938 -4.632812 7.71875 -5.25 7.71875 -6.691406 L 7.71875 -24.1875 C 7.71875 -25.628906 8.335938 -26.246094 9.777344 -26.246094 L 10.808594 -26.246094 C 12.25 -26.246094 12.867188 -25.628906 12.867188 -24.1875 L 12.867188 -20.328125 C 12.867188 -18.886719 13.484375 -18.269531 14.925781 -18.269531 L 15.953125 -18.269531 C 17.394531 -18.269531 18.011719 -18.886719 18.011719 -20.328125 L 18.011719 -24.703125 C 18.011719 -29.027344 16.160156 -30.878906 11.835938 -30.878906 L 8.75 -30.878906 C 4.425781 -30.878906 2.574219 -29.027344 2.574219 -24.703125 L 2.574219 -6.175781 C 2.574219 -1.851562 4.425781 0 8.75 0 Z M 15.441406 0 "/></g></g></g><g fill="#0b610b" fill-opacity="1"><g transform="translate(182.857151, 196.715437)"><g><path d="M 9.519531 -4.632812 C 8.078125 -4.632812 7.460938 -5.25 7.460938 -6.691406 L 7.460938 -11.066406 C 7.460938 -13.636719 8.390625 -13.84375 9.574219 -14.566406 L 12.609375 -16.3125 L 12.609375 -6.691406 C 12.609375 -5.25 11.941406 -4.632812 10.550781 -4.632812 Z M 17.753906 -24.703125 C 17.753906 -29.027344 15.902344 -30.878906 11.578125 -30.878906 L 5.402344 -30.878906 C 3.960938 -30.878906 3.34375 -30.261719 3.34375 -28.820312 L 3.34375 -28.304688 C 3.34375 -26.863281 3.960938 -26.246094 5.402344 -26.246094 L 10.550781 -26.246094 C 12.195312 -26.246094 12.609375 -25.476562 12.609375 -23.984375 C 12.609375 -21.769531 11.683594 -21.304688 10.550781 -20.636719 L 8.542969 -19.453125 C 5.558594 -17.703125 2.316406 -16.726562 2.316406 -11.835938 L 2.316406 -6.175781 C 2.316406 -1.851562 4.167969 0 8.492188 0 L 11.578125 0 C 15.902344 0 17.753906 -1.851562 17.753906 -6.175781 Z M 17.753906 -24.703125 "/></g></g></g><g fill="#0b610b" fill-opacity="1"><g transform="translate(203.182704, 196.715437)"><g><path d="M 18.011719 -24.703125 C 18.011719 -29.027344 16.160156 -30.878906 11.835938 -30.878906 L 8.75 -30.878906 C 4.425781 -30.878906 2.574219 -29.027344 2.574219 -24.703125 L 2.574219 -2.058594 C 2.574219 -0.617188 3.191406 0 4.632812 0 L 5.660156 0 C 7.101562 0 7.71875 -0.617188 7.71875 -2.058594 L 7.71875 -24.1875 C 7.71875 -25.628906 8.335938 -26.246094 9.777344 -26.246094 L 10.808594 -26.246094 C 12.25 -26.246094 12.867188 -25.628906 12.867188 -24.1875 L 12.867188 -2.058594 C 12.867188 -0.617188 13.484375 0 14.925781 0 L 15.953125 0 C 17.394531 0 18.011719 -0.617188 18.011719 -2.058594 Z M 18.011719 -24.703125 "/></g></g></g><g fill="#0b610b" fill-opacity="1"><g transform="translate(223.765543, 196.715437)"><g><path d="M 15.441406 0 C 16.878906 0 17.5 -0.617188 17.5 -2.058594 L 17.5 -2.574219 C 17.5 -4.015625 16.878906 -4.632812 15.441406 -4.632812 L 9.777344 -4.632812 C 8.335938 -4.632812 7.71875 -5.25 7.71875 -6.691406 L 7.71875 -24.1875 C 7.71875 -25.628906 8.335938 -26.246094 9.777344 -26.246094 L 10.808594 -26.246094 C 12.25 -26.246094 12.867188 -25.628906 12.867188 -24.1875 L 12.867188 -20.328125 C 12.867188 -18.886719 13.484375 -18.269531 14.925781 -18.269531 L 15.953125 -18.269531 C 17.394531 -18.269531 18.011719 -18.886719 18.011719 -20.328125 L 18.011719 -24.703125 C 18.011719 -29.027344 16.160156 -30.878906 11.835938 -30.878906 L 8.75 -30.878906 C 4.425781 -30.878906 2.574219 -29.027344 2.574219 -24.703125 L 2.574219 -6.175781 C 2.574219 -1.851562 4.425781 0 8.75 0 Z M 15.441406 0 "/></g></g></g><g fill="#0b610b" fill-opacity="1"><g transform="translate(243.576523, 196.715437)"><g><path d="M 12.867188 -14.667969 C 12.867188 -13.945312 12.558594 -13.636719 11.835938 -13.636719 L 8.75 -13.636719 C 8.027344 -13.636719 7.71875 -13.945312 7.71875 -14.667969 L 7.71875 -24.1875 C 7.71875 -25.628906 8.335938 -26.246094 9.777344 -26.246094 L 10.808594 -26.246094 C 12.25 -26.246094 12.867188 -25.628906 12.867188 -24.1875 Z M 15.441406 0 C 16.878906 0 17.5 -0.617188 17.5 -2.058594 L 17.5 -2.574219 C 17.5 -4.015625 16.878906 -4.632812 15.441406 -4.632812 L 9.777344 -4.632812 C 8.335938 -4.632812 7.71875 -5.25 7.71875 -6.691406 L 7.71875 -7.976562 C 7.71875 -8.699219 8.027344 -9.007812 8.75 -9.007812 L 11.835938 -9.007812 C 16.160156 -9.007812 18.011719 -10.859375 18.011719 -15.183594 L 18.011719 -24.703125 C 18.011719 -29.027344 16.160156 -30.878906 11.835938 -30.878906 L 8.75 -30.878906 C 4.425781 -30.878906 2.574219 -29.027344 2.574219 -24.703125 L 2.574219 -6.175781 C 2.574219 -1.851562 4.425781 0 8.75 0 Z M 15.441406 0 "/></g></g></g><g fill="#2e5b79" fill-opacity="1"><g transform="translate(105.603088, 218.568823)"><g><path d="M 4.546875 -8.3125 C 5.609375 -8.3125 6.4375 -8.050781 7.03125 -7.53125 C 7.632812 -7.019531 7.976562 -6.34375 8.0625 -5.5 L 8.078125 -5.390625 L 6.453125 -5.390625 L 6.421875 -5.5 C 6.210938 -6.5625 5.582031 -7.09375 4.53125 -7.09375 C 3.863281 -7.09375 3.328125 -6.828125 2.921875 -6.296875 C 2.523438 -5.765625 2.328125 -5.039062 2.328125 -4.125 C 2.328125 -3.132812 2.523438 -2.375 2.921875 -1.84375 C 3.328125 -1.3125 3.851562 -1.046875 4.5 -1.046875 C 5.019531 -1.046875 5.4375 -1.191406 5.75 -1.484375 C 6.0625 -1.773438 6.273438 -2.179688 6.390625 -2.703125 L 6.421875 -2.828125 L 8.03125 -2.828125 L 8.015625 -2.703125 C 7.929688 -1.816406 7.570312 -1.113281 6.9375 -0.59375 C 6.300781 -0.0820312 5.460938 0.171875 4.421875 0.171875 C 3.273438 0.171875 2.351562 -0.207031 1.65625 -0.96875 C 0.957031 -1.726562 0.609375 -2.75 0.609375 -4.03125 C 0.609375 -5.332031 0.976562 -6.367188 1.71875 -7.140625 C 2.457031 -7.921875 3.398438 -8.3125 4.546875 -8.3125 Z M 4.546875 -8.3125 "/></g></g></g><g fill="#2e5b79" fill-opacity="1"><g transform="translate(116.319781, 218.568823)"><g><path d="M 4.625 -8.3125 C 5.875 -8.3125 6.859375 -7.925781 7.578125 -7.15625 C 8.296875 -6.394531 8.65625 -5.367188 8.65625 -4.078125 C 8.65625 -2.796875 8.296875 -1.765625 7.578125 -0.984375 C 6.859375 -0.210938 5.875 0.171875 4.625 0.171875 C 3.382812 0.171875 2.40625 -0.210938 1.6875 -0.984375 C 0.96875 -1.765625 0.609375 -2.796875 0.609375 -4.078125 C 0.609375 -5.367188 0.960938 -6.394531 1.671875 -7.15625 C 2.390625 -7.925781 3.375 -8.3125 4.625 -8.3125 Z M 2.921875 -1.84375 C 3.335938 -1.3125 3.90625 -1.046875 4.625 -1.046875 C 5.351562 -1.046875 5.921875 -1.3125 6.328125 -1.84375 C 6.742188 -2.382812 6.953125 -3.128906 6.953125 -4.078125 C 6.953125 -5.023438 6.742188 -5.765625 6.328125 -6.296875 C 5.921875 -6.828125 5.351562 -7.09375 4.625 -7.09375 C 3.894531 -7.09375 3.320312 -6.828125 2.90625 -6.296875 C 2.5 -5.765625 2.296875 -5.019531 2.296875 -4.0625 C 2.296875 -3.113281 2.503906 -2.375 2.921875 -1.84375 Z M 2.921875 -1.84375 "/></g></g></g><g fill="#2e5b79" fill-opacity="1"><g transform="translate(127.591111, 218.568823)"><g><path d="M 8.203125 0 L 5.984375 0 L 2.625 -6.1875 C 2.664062 -5.445312 2.6875 -4.613281 2.6875 -3.6875 L 2.6875 0 L 1.046875 0 L 1.046875 -8.15625 L 3.21875 -8.15625 L 6.640625 -1.84375 C 6.597656 -2.570312 6.578125 -3.425781 6.578125 -4.40625 L 6.578125 -8.15625 L 8.203125 -8.15625 Z M 8.203125 0 "/></g></g></g><g fill="#2e5b79" fill-opacity="1"><g transform="translate(138.803446, 218.568823)"><g><path d="M 3.75 -8.3125 C 4.6875 -8.3125 5.398438 -8.078125 5.890625 -7.609375 C 6.378906 -7.148438 6.671875 -6.53125 6.765625 -5.75 L 5.109375 -5.75 C 5.054688 -6.175781 4.910156 -6.503906 4.671875 -6.734375 C 4.441406 -6.972656 4.117188 -7.09375 3.703125 -7.09375 C 3.359375 -7.09375 3.078125 -7.007812 2.859375 -6.84375 C 2.648438 -6.6875 2.546875 -6.445312 2.546875 -6.125 C 2.546875 -5.78125 2.671875 -5.507812 2.921875 -5.3125 C 3.179688 -5.113281 3.632812 -4.941406 4.28125 -4.796875 C 5.175781 -4.585938 5.832031 -4.273438 6.25 -3.859375 C 6.675781 -3.441406 6.890625 -2.90625 6.890625 -2.25 C 6.890625 -1.507812 6.597656 -0.921875 6.015625 -0.484375 C 5.429688 -0.046875 4.71875 0.171875 3.875 0.171875 C 2.882812 0.171875 2.09375 -0.046875 1.5 -0.484375 C 0.90625 -0.921875 0.570312 -1.5625 0.5 -2.40625 L 2.15625 -2.40625 C 2.25 -1.976562 2.445312 -1.644531 2.75 -1.40625 C 3.0625 -1.164062 3.425781 -1.046875 3.84375 -1.046875 C 4.226562 -1.046875 4.546875 -1.140625 4.796875 -1.328125 C 5.054688 -1.523438 5.1875 -1.773438 5.1875 -2.078125 C 5.1875 -2.421875 5.0625 -2.695312 4.8125 -2.90625 C 4.5625 -3.125 4.144531 -3.304688 3.5625 -3.453125 C 2.644531 -3.671875 1.960938 -3.960938 1.515625 -4.328125 C 1.066406 -4.691406 0.84375 -5.226562 0.84375 -5.9375 C 0.84375 -6.65625 1.125 -7.226562 1.6875 -7.65625 C 2.257812 -8.09375 2.945312 -8.3125 3.75 -8.3125 Z M 3.75 -8.3125 "/></g></g></g><g fill="#2e5b79" fill-opacity="1"><g transform="translate(148.222059, 218.568823)"><g><path d="M 7.671875 -8.15625 L 7.671875 -3.3125 C 7.671875 -2.925781 7.660156 -2.609375 7.640625 -2.359375 C 7.585938 -1.617188 7.285156 -1.007812 6.734375 -0.53125 C 6.191406 -0.0625 5.382812 0.171875 4.3125 0.171875 C 3.226562 0.171875 2.410156 -0.0625 1.859375 -0.53125 C 1.316406 -1.007812 1.019531 -1.617188 0.96875 -2.359375 C 0.945312 -2.609375 0.9375 -2.925781 0.9375 -3.3125 L 0.9375 -8.15625 L 2.5625 -8.15625 L 2.5625 -3.15625 C 2.5625 -2.875 2.570312 -2.675781 2.59375 -2.5625 C 2.625 -2.082031 2.785156 -1.707031 3.078125 -1.4375 C 3.367188 -1.175781 3.78125 -1.046875 4.3125 -1.046875 C 4.84375 -1.046875 5.25 -1.175781 5.53125 -1.4375 C 5.820312 -1.707031 5.988281 -2.082031 6.03125 -2.5625 C 6.039062 -2.675781 6.046875 -2.875 6.046875 -3.15625 L 6.046875 -8.15625 Z M 7.671875 -8.15625 "/></g></g></g><g fill="#2e5b79" fill-opacity="1"><g transform="translate(158.749945, 218.568823)"><g><path d="M 6.9375 -1.359375 L 6.9375 0 L 1.046875 0 L 1.046875 -8.15625 L 2.6875 -8.15625 L 2.6875 -1.359375 Z M 6.9375 -1.359375 "/></g></g></g><g fill="#2e5b79" fill-opacity="1"><g transform="translate(168.121351, 218.568823)"><g><path d="M 7.4375 -6.875 L 4.671875 -6.875 L 4.671875 0 L 3.03125 0 L 3.03125 -6.875 L 0.265625 -6.875 L 0.265625 -8.15625 L 7.4375 -8.15625 Z M 7.4375 -6.875 "/></g></g></g><g fill="#2e5b79" fill-opacity="1"><g transform="translate(177.716969, 218.568823)"><g><path d="M 4.625 -8.3125 C 5.875 -8.3125 6.859375 -7.925781 7.578125 -7.15625 C 8.296875 -6.394531 8.65625 -5.367188 8.65625 -4.078125 C 8.65625 -2.796875 8.296875 -1.765625 7.578125 -0.984375 C 6.859375 -0.210938 5.875 0.171875 4.625 0.171875 C 3.382812 0.171875 2.40625 -0.210938 1.6875 -0.984375 C 0.96875 -1.765625 0.609375 -2.796875 0.609375 -4.078125 C 0.609375 -5.367188 0.960938 -6.394531 1.671875 -7.15625 C 2.390625 -7.925781 3.375 -8.3125 4.625 -8.3125 Z M 2.921875 -1.84375 C 3.335938 -1.3125 3.90625 -1.046875 4.625 -1.046875 C 5.351562 -1.046875 5.921875 -1.3125 6.328125 -1.84375 C 6.742188 -2.382812 6.953125 -3.128906 6.953125 -4.078125 C 6.953125 -5.023438 6.742188 -5.765625 6.328125 -6.296875 C 5.921875 -6.828125 5.351562 -7.09375 4.625 -7.09375 C 3.894531 -7.09375 3.320312 -6.828125 2.90625 -6.296875 C 2.5 -5.765625 2.296875 -5.019531 2.296875 -4.0625 C 2.296875 -3.113281 2.503906 -2.375 2.921875 -1.84375 Z M 2.921875 -1.84375 "/></g></g></g><g fill="#2e5b79" fill-opacity="1"><g transform="translate(188.9883, 218.568823)"><g><path d="M 6.953125 -2.0625 C 7.054688 -1.09375 7.253906 -0.40625 7.546875 0 L 5.765625 0 C 5.566406 -0.539062 5.429688 -1.144531 5.359375 -1.8125 C 5.253906 -2.738281 4.890625 -3.222656 4.265625 -3.265625 C 4.117188 -3.273438 3.90625 -3.28125 3.625 -3.28125 L 2.6875 -3.28125 L 2.6875 0 L 1.046875 0 L 1.046875 -8.15625 L 4.03125 -8.15625 C 4.476562 -8.15625 4.867188 -8.132812 5.203125 -8.09375 C 5.847656 -8.007812 6.363281 -7.789062 6.75 -7.4375 C 7.144531 -7.09375 7.34375 -6.59375 7.34375 -5.9375 C 7.34375 -5.414062 7.203125 -4.988281 6.921875 -4.65625 C 6.640625 -4.320312 6.25 -4.085938 5.75 -3.953125 C 6.445312 -3.679688 6.847656 -3.050781 6.953125 -2.0625 Z M 2.6875 -4.5 L 3.796875 -4.5 C 4.117188 -4.5 4.34375 -4.503906 4.46875 -4.515625 C 5.25 -4.585938 5.640625 -4.976562 5.640625 -5.6875 C 5.640625 -6.050781 5.546875 -6.320312 5.359375 -6.5 C 5.171875 -6.675781 4.90625 -6.789062 4.5625 -6.84375 C 4.375 -6.863281 4.144531 -6.875 3.875 -6.875 L 2.6875 -6.875 Z M 2.6875 -4.5 "/></g></g></g><g fill="#2e5b79" fill-opacity="1"><g transform="translate(198.949741, 218.568823)"><g><path d="M 2.6875 0 L 1.046875 0 L 1.046875 -8.15625 L 2.6875 -8.15625 Z M 2.6875 0 "/></g></g></g><g fill="#2e5b79" fill-opacity="1"><g transform="translate(204.639279, 218.568823)"><g><path d="M 5.46875 -2.453125 L 2.734375 -2.453125 L 1.90625 0 L 0.171875 0 L 3.125 -8.15625 L 5.15625 -8.15625 L 8.046875 0 L 6.265625 0 Z M 4.109375 -6.75 L 3.140625 -3.75 L 5.0625 -3.75 Z M 4.109375 -6.75 "/></g></g></g><g fill="#2e5b79" fill-opacity="1"><g transform="translate(214.86034, 218.568823)"><g/></g></g><g fill="#2e5b79" fill-opacity="1"><g transform="translate(219.393402, 218.568823)"><g><path d="M 6.9375 -1.28125 L 6.9375 0 L 1.046875 0 L 1.046875 -8.15625 L 6.8125 -8.15625 L 6.8125 -6.875 L 2.6875 -6.875 L 2.6875 -4.71875 L 6.515625 -4.71875 L 6.515625 -3.4375 L 2.6875 -3.4375 L 2.6875 -1.28125 Z M 6.9375 -1.28125 "/></g></g></g><g fill="#2e5b79" fill-opacity="1"><g transform="translate(228.906417, 218.568823)"><g><path d="M 9.84375 -8.15625 L 9.84375 0 L 8.203125 0 L 8.203125 -3.765625 C 8.203125 -5.054688 8.210938 -5.988281 8.234375 -6.5625 C 8.015625 -5.613281 7.765625 -4.6875 7.484375 -3.78125 L 6.328125 0 L 4.5625 0 L 3.390625 -3.796875 C 3.085938 -4.796875 2.84375 -5.710938 2.65625 -6.546875 C 2.675781 -5.972656 2.6875 -5.046875 2.6875 -3.765625 L 2.6875 0 L 1.046875 0 L 1.046875 -8.15625 L 3.625 -8.15625 L 5.46875 -1.5 L 7.3125 -8.15625 Z M 9.84375 -8.15625 "/></g></g></g><g fill="#2e5b79" fill-opacity="1"><g transform="translate(241.73546, 218.568823)"><g/></g></g><g fill="#2e5b79" fill-opacity="1"><g transform="translate(246.268522, 218.568823)"><g><path d="M 3.75 -8.3125 C 4.6875 -8.3125 5.398438 -8.078125 5.890625 -7.609375 C 6.378906 -7.148438 6.671875 -6.53125 6.765625 -5.75 L 5.109375 -5.75 C 5.054688 -6.175781 4.910156 -6.503906 4.671875 -6.734375 C 4.441406 -6.972656 4.117188 -7.09375 3.703125 -7.09375 C 3.359375 -7.09375 3.078125 -7.007812 2.859375 -6.84375 C 2.648438 -6.6875 2.546875 -6.445312 2.546875 -6.125 C 2.546875 -5.78125 2.671875 -5.507812 2.921875 -5.3125 C 3.179688 -5.113281 3.632812 -4.941406 4.28125 -4.796875 C 5.175781 -4.585938 5.832031 -4.273438 6.25 -3.859375 C 6.675781 -3.441406 6.890625 -2.90625 6.890625 -2.25 C 6.890625 -1.507812 6.597656 -0.921875 6.015625 -0.484375 C 5.429688 -0.046875 4.71875 0.171875 3.875 0.171875 C 2.882812 0.171875 2.09375 -0.046875 1.5 -0.484375 C 0.90625 -0.921875 0.570312 -1.5625 0.5 -2.40625 L 2.15625 -2.40625 C 2.25 -1.976562 2.445312 -1.644531 2.75 -1.40625 C 3.0625 -1.164062 3.425781 -1.046875 3.84375 -1.046875 C 4.226562 -1.046875 4.546875 -1.140625 4.796875 -1.328125 C 5.054688 -1.523438 5.1875 -1.773438 5.1875 -2.078125 C 5.1875 -2.421875 5.0625 -2.695312 4.8125 -2.90625 C 4.5625 -3.125 4.144531 -3.304688 3.5625 -3.453125 C 2.644531 -3.671875 1.960938 -3.960938 1.515625 -4.328125 C 1.066406 -4.691406 0.84375 -5.226562 0.84375 -5.9375 C 0.84375 -6.65625 1.125 -7.226562 1.6875 -7.65625 C 2.257812 -8.09375 2.945312 -8.3125 3.75 -8.3125 Z M 3.75 -8.3125 "/></g></g></g><g fill="#2e5b79" fill-opacity="1"><g transform="translate(255.687135, 218.568823)"><g><path d="M 5.46875 -2.453125 L 2.734375 -2.453125 L 1.90625 0 L 0.171875 0 L 3.125 -8.15625 L 5.15625 -8.15625 L 8.046875 0 L 6.265625 0 Z M 4.109375 -6.75 L 3.140625 -3.75 L 5.0625 -3.75 Z M 4.109375 -6.75 "/></g></g></g><g fill="#2e5b79" fill-opacity="1"><g transform="translate(265.908196, 218.568823)"><g><path d="M 4.703125 -8.6875 L 3.78125 -8.6875 L 4.671875 -10 L 6.125 -10 Z M 7.671875 -8.15625 L 7.671875 -3.3125 C 7.671875 -2.925781 7.660156 -2.609375 7.640625 -2.359375 C 7.585938 -1.617188 7.285156 -1.007812 6.734375 -0.53125 C 6.191406 -0.0625 5.382812 0.171875 4.3125 0.171875 C 3.226562 0.171875 2.410156 -0.0625 1.859375 -0.53125 C 1.316406 -1.007812 1.019531 -1.617188 0.96875 -2.359375 C 0.945312 -2.609375 0.9375 -2.925781 0.9375 -3.3125 L 0.9375 -8.15625 L 2.5625 -8.15625 L 2.5625 -3.15625 C 2.5625 -2.875 2.570312 -2.675781 2.59375 -2.5625 C 2.625 -2.082031 2.785156 -1.707031 3.078125 -1.4375 C 3.367188 -1.175781 3.78125 -1.046875 4.3125 -1.046875 C 4.84375 -1.046875 5.25 -1.175781 5.53125 -1.4375 C 5.820312 -1.707031 5.988281 -2.082031 6.03125 -2.5625 C 6.039062 -2.675781 6.046875 -2.875 6.046875 -3.15625 L 6.046875 -8.15625 Z M 7.671875 -8.15625 "/></g></g></g><g fill="#2e5b79" fill-opacity="1"><g transform="translate(276.436084, 218.568823)"><g><path d="M 4.90625 -8.109375 C 5.914062 -7.984375 6.722656 -7.59375 7.328125 -6.9375 C 7.941406 -6.289062 8.25 -5.375 8.25 -4.1875 C 8.25 -2.988281 7.929688 -2.023438 7.296875 -1.296875 C 6.671875 -0.578125 5.863281 -0.160156 4.875 -0.046875 C 4.601562 -0.015625 4.257812 0 3.84375 0 L 1.046875 0 L 1.046875 -8.15625 L 3.859375 -8.15625 C 4.273438 -8.15625 4.625 -8.140625 4.90625 -8.109375 Z M 4.515625 -1.328125 C 5.140625 -1.398438 5.628906 -1.679688 5.984375 -2.171875 C 6.347656 -2.671875 6.53125 -3.332031 6.53125 -4.15625 C 6.53125 -4.945312 6.351562 -5.566406 6 -6.015625 C 5.644531 -6.472656 5.160156 -6.742188 4.546875 -6.828125 C 4.304688 -6.859375 4.015625 -6.875 3.671875 -6.875 L 2.6875 -6.875 L 2.6875 -1.28125 L 3.65625 -1.28125 C 4.050781 -1.28125 4.335938 -1.296875 4.515625 -1.328125 Z M 4.515625 -1.328125 "/></g></g></g><g fill="#2e5b79" fill-opacity="1"><g transform="translate(287.306197, 218.568823)"><g><path d="M 6.9375 -1.28125 L 6.9375 0 L 1.046875 0 L 1.046875 -8.15625 L 6.8125 -8.15625 L 6.8125 -6.875 L 2.6875 -6.875 L 2.6875 -4.71875 L 6.515625 -4.71875 L 6.515625 -3.4375 L 2.6875 -3.4375 L 2.6875 -1.28125 Z M 6.9375 -1.28125 "/></g></g></g><g clip-path="url(#id1)"><path fill="#2e5b79" d="M 61.113281 211.746094 C 60.742188 211.746094 60.382812 211.816406 60.039062 211.960938 C 59.695312 212.101562 59.390625 212.304688 59.128906 212.570312 C 58.867188 212.832031 58.664062 213.136719 58.519531 213.480469 C 58.378906 213.824219 58.304688 214.183594 58.304688 214.558594 L 58.304688 215.496094 L 56.433594 215.496094 C 56.0625 215.496094 55.703125 215.566406 55.359375 215.710938 C 55.015625 215.851562 54.714844 216.054688 54.449219 216.320312 C 54.1875 216.582031 53.984375 216.886719 53.839844 217.230469 C 53.699219 217.574219 53.628906 217.933594 53.625 218.308594 L 53.625 221.121094 C 53.625 221.378906 53.71875 221.597656 53.902344 221.78125 C 54.082031 221.964844 54.304688 222.058594 54.5625 222.058594 L 99.476562 222.058594 C 99.734375 222.058594 99.957031 221.964844 100.140625 221.78125 C 100.320312 221.597656 100.414062 221.378906 100.414062 221.121094 L 100.414062 218.308594 C 100.414062 217.933594 100.339844 217.574219 100.199219 217.230469 C 100.054688 216.886719 99.851562 216.582031 99.589844 216.320312 C 99.328125 216.054688 99.023438 215.851562 98.679688 215.710938 C 98.335938 215.566406 97.976562 215.496094 97.605469 215.496094 L 95.734375 215.496094 L 95.734375 214.558594 C 95.734375 214.183594 95.664062 213.824219 95.519531 213.480469 C 95.378906 213.136719 95.175781 212.832031 94.910156 212.570312 C 94.648438 212.304688 94.34375 212.101562 94 211.960938 C 93.65625 211.816406 93.300781 211.746094 92.925781 211.746094 L 91.910156 211.746094 L 87.402344 162.058594 L 88.25 162.058594 C 88.621094 162.058594 88.980469 161.984375 89.324219 161.84375 C 89.667969 161.699219 89.972656 161.496094 90.234375 161.234375 C 90.496094 160.96875 90.699219 160.664062 90.84375 160.320312 C 90.984375 159.976562 91.054688 159.617188 91.054688 159.246094 C 91.054688 158.871094 90.984375 158.511719 90.84375 158.167969 C 90.699219 157.824219 90.496094 157.519531 90.234375 157.257812 C 89.972656 156.992188 89.667969 156.789062 89.324219 156.644531 C 88.980469 156.503906 88.621094 156.433594 88.25 156.433594 L 87.3125 156.433594 L 87.3125 147.058594 L 88.25 147.058594 C 88.507812 147.058594 88.726562 146.964844 88.910156 146.78125 C 89.09375 146.597656 89.183594 146.378906 89.183594 146.121094 C 89.183594 145.859375 89.09375 145.640625 88.910156 145.457031 C 88.726562 145.273438 88.507812 145.183594 88.25 145.183594 L 87.0625 145.183594 C 86.625 143.96875 86.023438 142.84375 85.253906 141.808594 C 83.425781 139.363281 80.914062 137.960938 77.957031 137.71875 L 77.957031 136.746094 C 77.957031 136.484375 77.863281 136.265625 77.683594 136.082031 C 77.5 135.898438 77.277344 135.808594 77.019531 135.808594 C 76.761719 135.808594 76.542969 135.898438 76.359375 136.082031 C 76.175781 136.265625 76.085938 136.484375 76.085938 136.746094 L 76.085938 137.71875 C 73.125 137.960938 70.617188 139.363281 68.785156 141.808594 C 68.015625 142.84375 67.414062 143.96875 66.976562 145.183594 L 65.792969 145.183594 C 65.53125 145.183594 65.3125 145.273438 65.128906 145.457031 C 64.945312 145.640625 64.855469 145.859375 64.855469 146.121094 C 64.855469 146.378906 64.945312 146.597656 65.128906 146.78125 C 65.3125 146.964844 65.53125 147.058594 65.792969 147.058594 L 66.726562 147.058594 L 66.726562 156.433594 L 65.792969 156.433594 C 65.417969 156.433594 65.0625 156.503906 64.71875 156.644531 C 64.375 156.789062 64.070312 156.992188 63.804688 157.257812 C 63.542969 157.519531 63.339844 157.824219 63.199219 158.167969 C 63.054688 158.511719 62.984375 158.871094 62.984375 159.246094 C 62.984375 159.617188 63.054688 159.976562 63.199219 160.320312 C 63.339844 160.664062 63.542969 160.96875 63.804688 161.234375 C 64.070312 161.496094 64.375 161.699219 64.71875 161.84375 C 65.0625 161.984375 65.417969 162.058594 65.792969 162.058594 L 66.636719 162.058594 L 62.128906 211.746094 Z M 98.542969 218.308594 L 98.542969 220.183594 L 55.5 220.183594 L 55.5 218.308594 C 55.5 218.046875 55.589844 217.828125 55.773438 217.644531 C 55.957031 217.460938 56.175781 217.371094 56.433594 217.371094 L 97.605469 217.371094 C 97.863281 217.371094 98.085938 217.460938 98.269531 217.644531 C 98.449219 217.828125 98.542969 218.046875 98.542969 218.308594 Z M 93.863281 214.558594 L 93.863281 215.496094 L 60.175781 215.496094 L 60.175781 214.558594 C 60.175781 214.296875 60.269531 214.078125 60.453125 213.894531 C 60.632812 213.710938 60.855469 213.621094 61.113281 213.621094 L 92.925781 213.621094 C 93.1875 213.621094 93.40625 213.710938 93.589844 213.894531 C 93.773438 214.078125 93.863281 214.296875 93.863281 214.558594 Z M 78.890625 211.746094 L 75.148438 211.746094 L 75.148438 204.246094 C 75.148438 203.996094 75.195312 203.757812 75.292969 203.527344 C 75.386719 203.296875 75.519531 203.09375 75.695312 202.917969 C 75.871094 202.742188 76.074219 202.609375 76.304688 202.511719 C 76.535156 202.417969 76.773438 202.371094 77.019531 202.371094 C 77.269531 202.371094 77.507812 202.417969 77.734375 202.511719 C 77.964844 202.609375 78.167969 202.742188 78.34375 202.917969 C 78.519531 203.09375 78.652344 203.296875 78.75 203.527344 C 78.84375 203.757812 78.890625 203.996094 78.890625 204.246094 Z M 88.5 194.871094 L 65.539062 194.871094 L 66.984375 178.933594 L 87.054688 178.933594 Z M 85.441406 147.058594 L 85.441406 156.433594 L 77.957031 156.433594 L 77.957031 147.058594 Z M 70.320312 142.882812 C 71.992188 140.675781 74.246094 139.558594 77.019531 139.558594 C 79.792969 139.558594 82.046875 140.675781 83.71875 142.882812 C 84.253906 143.59375 84.699219 144.363281 85.050781 145.183594 L 68.992188 145.183594 C 69.339844 144.363281 69.785156 143.59375 70.320312 142.882812 Z M 68.597656 147.058594 L 76.085938 147.058594 L 76.085938 156.433594 L 68.597656 156.433594 Z M 64.855469 159.246094 C 64.855469 158.984375 64.949219 158.765625 65.128906 158.582031 C 65.3125 158.398438 65.53125 158.308594 65.792969 158.308594 L 88.25 158.308594 C 88.507812 158.308594 88.726562 158.398438 88.910156 158.582031 C 89.09375 158.765625 89.183594 158.984375 89.183594 159.246094 C 89.183594 159.503906 89.09375 159.722656 88.910156 159.90625 C 88.726562 160.089844 88.507812 160.183594 88.25 160.183594 L 65.792969 160.183594 C 65.53125 160.183594 65.3125 160.089844 65.128906 159.90625 C 64.949219 159.722656 64.855469 159.503906 64.855469 159.246094 Z M 85.523438 162.058594 L 86.882812 177.058594 L 67.15625 177.058594 L 68.515625 162.058594 Z M 65.371094 196.746094 L 88.671875 196.746094 L 90.03125 211.746094 L 80.761719 211.746094 L 80.761719 204.246094 C 80.761719 203.746094 80.667969 203.269531 80.476562 202.808594 C 80.289062 202.351562 80.019531 201.945312 79.667969 201.59375 C 79.316406 201.242188 78.910156 200.96875 78.453125 200.78125 C 77.992188 200.589844 77.515625 200.496094 77.019531 200.496094 C 76.523438 200.496094 76.046875 200.589844 75.585938 200.78125 C 75.128906 200.96875 74.722656 201.242188 74.375 201.59375 C 74.023438 201.945312 73.753906 202.351562 73.5625 202.808594 C 73.371094 203.269531 73.277344 203.746094 73.277344 204.246094 L 73.277344 211.746094 L 64.007812 211.746094 Z M 39.609375 144.992188 C 39.664062 144.738281 39.796875 144.539062 40.011719 144.398438 C 40.230469 144.257812 40.464844 144.210938 40.71875 144.265625 L 63.175781 148.953125 C 63.429688 149.003906 63.625 149.140625 63.769531 149.355469 C 63.910156 149.574219 63.953125 149.808594 63.902344 150.0625 C 63.847656 150.316406 63.714844 150.511719 63.496094 150.65625 C 63.28125 150.796875 63.046875 150.839844 62.792969 150.789062 L 40.335938 146.101562 C 40.082031 146.046875 39.886719 145.914062 39.742188 145.695312 C 39.601562 145.480469 39.558594 145.246094 39.609375 144.992188 Z M 39.609375 158.5 C 39.558594 158.246094 39.601562 158.011719 39.742188 157.792969 C 39.886719 157.578125 40.082031 157.441406 40.335938 157.390625 L 62.792969 152.703125 C 63.046875 152.648438 63.28125 152.695312 63.496094 152.835938 C 63.714844 152.976562 63.847656 153.175781 63.898438 153.429688 C 63.953125 153.683594 63.910156 153.917969 63.765625 154.132812 C 63.625 154.351562 63.429688 154.484375 63.175781 154.539062 L 40.71875 159.226562 C 40.464844 159.277344 40.230469 159.234375 40.011719 159.089844 C 39.796875 158.949219 39.664062 158.753906 39.609375 158.5 Z M 113.710938 146.097656 L 92.191406 150.785156 C 91.9375 150.839844 91.703125 150.796875 91.484375 150.660156 C 91.269531 150.519531 91.132812 150.320312 91.078125 150.070312 C 91.023438 149.816406 91.0625 149.582031 91.203125 149.363281 C 91.34375 149.144531 91.539062 149.007812 91.792969 148.953125 L 113.316406 144.265625 C 113.566406 144.210938 113.800781 144.253906 114.019531 144.394531 C 114.238281 144.535156 114.375 144.730469 114.429688 144.984375 C 114.484375 145.234375 114.441406 145.472656 114.300781 145.6875 C 114.160156 145.90625 113.964844 146.042969 113.710938 146.097656 Z M 114.429688 158.507812 C 114.375 158.757812 114.238281 158.957031 114.019531 159.097656 C 113.800781 159.238281 113.566406 159.277344 113.316406 159.222656 L 91.792969 154.535156 C 91.539062 154.480469 91.34375 154.34375 91.203125 154.125 C 91.066406 153.910156 91.023438 153.671875 91.078125 153.421875 C 91.132812 153.167969 91.269531 152.972656 91.484375 152.832031 C 91.703125 152.691406 91.9375 152.648438 92.191406 152.703125 L 113.710938 157.390625 C 113.964844 157.445312 114.160156 157.582031 114.300781 157.800781 C 114.441406 158.019531 114.484375 158.253906 114.429688 158.507812 Z M 114.429688 158.507812 " fill-opacity="1" fill-rule="nonzero"/></g></svg>